<?xml version="1.0" encoding="UTF-8" standalone="no"?>
<!DOCTYPE svg PUBLIC "-//W3C//DTD SVG 1.1//EN" "http://www.w3.org/Graphics/SVG/1.1/DTD/svg11.dtd">
<svg width="100%" height="100%" viewBox="0 0 1080 687" version="1.1" xmlns="http://www.w3.org/2000/svg" xmlns:xlink="http://www.w3.org/1999/xlink" xml:space="preserve" xmlns:serif="http://www.serif.com/" style="fill-rule:evenodd;clip-rule:evenodd;stroke-linejoin:round;stroke-miterlimit:2;">
    <rect id="Artboard1" x="0" y="0" width="1080" height="686.921" style="fill:none;"/>
    <clipPath id="_clip1">
        <rect x="0" y="0" width="1080" height="686.921"/>
    </clipPath>
    <g clip-path="url(#_clip1)">
        <rect x="-0" y="-0" width="1080" height="687.576" style="fill:#1f212b;"/>
        <g>
            <g id="Layer2">
                <path d="M661.676,360.507L601.74,485.531L570.448,417.409C561.505,397.941 562.254,376.952 568.972,360.489L661.676,360.507Z" style="fill:url(#_Linear2);"/>
                <path d="M570.336,356.048L668.998,139.201C680.967,112.894 707.204,96.006 736.106,96.006L774.422,96.006C775.426,96.006 776.406,96.176 777.327,96.497L1038.86,98.945C1039.1,149.97 961.568,188.053 939.875,186.287L800.666,186.606C800.536,186.606 800.421,186.692 800.384,186.816L799.541,189.643C798.942,191.655 799.328,193.832 800.583,195.514C801.837,197.197 803.813,198.189 805.912,198.189L948.794,198.189C927.968,257.415 888.275,272.066 853.98,274.029L741.615,275.557L739.889,277.84C738.673,279.448 738.479,281.608 739.389,283.407C740.3,285.206 742.155,286.33 744.172,286.302L864.11,284.659C848.118,356.343 803.259,358.315 779.719,360.514L681.923,360.507L661.676,360.507C635.858,360.045 580.355,389.868 571.415,419.515C567.273,410.376 564.778,403.332 563.834,388.669C563.335,380.926 564.904,369.896 570.336,356.048Z" style="fill:url(#_Linear3);"/>
                <path d="M493.623,357.715L568.611,521.524C573.458,532.113 573.349,544.308 568.313,554.808L531.235,632.127L398.077,359.715" style="fill:url(#_Linear4);"/>
                <path d="M398.077,359.715L300.281,359.715C276.741,357.515 231.882,355.544 215.89,283.86L335.828,285.503C337.845,285.53 339.7,284.407 340.611,282.608C341.521,280.809 341.327,278.648 340.111,277.04L340.104,277.031C339.02,275.597 337.334,274.743 335.535,274.719L226.02,273.23C191.725,271.266 152.032,256.615 131.206,197.389L274.088,197.389C276.187,197.389 278.163,196.398 279.417,194.715C280.672,193.032 281.058,190.855 280.459,188.844L280.18,187.908C279.808,186.661 278.662,185.805 277.36,185.802L140.125,185.488C118.432,187.254 40.903,149.171 41.143,98.146L312.242,95.608C315.488,95.577 318.711,95.712 321.899,96.006L326.484,96.006C355.325,96.006 381.518,112.823 393.522,139.046L520.775,417.027C490.517,374.218 453.555,355.963 398.077,359.715Z" style="fill:url(#_Linear5);"/>
            </g>
        </g>
    </g>
    <defs>
        <linearGradient id="_Linear2" x1="0" y1="0" x2="1" y2="0" gradientUnits="userSpaceOnUse" gradientTransform="matrix(-10.6115,-20.7887,20.7887,-10.6115,629.327,409.213)"><stop offset="0" style="stop-color:#8dbe68;stop-opacity:1"/><stop offset="1" style="stop-color:#549820;stop-opacity:1"/></linearGradient>
        <linearGradient id="_Linear3" x1="0" y1="0" x2="1" y2="0" gradientUnits="userSpaceOnUse" gradientTransform="matrix(262.565,-201.889,201.889,262.565,622.132,345.204)"><stop offset="0" style="stop-color:#8dbe68;stop-opacity:1"/><stop offset="1" style="stop-color:#549820;stop-opacity:1"/></linearGradient>
        <linearGradient id="_Linear4" x1="0" y1="0" x2="1" y2="0" gradientUnits="userSpaceOnUse" gradientTransform="matrix(11.678,-131.056,131.056,11.678,473.445,494.921)"><stop offset="0" style="stop-color:#4f7fbe;stop-opacity:1"/><stop offset="1" style="stop-color:#184a8c;stop-opacity:1"/></linearGradient>
        <linearGradient id="_Linear5" x1="0" y1="0" x2="1" y2="0" gradientUnits="userSpaceOnUse" gradientTransform="matrix(-253.843,-298.458,298.458,-253.843,438.803,350.974)"><stop offset="0" style="stop-color:#4f7fbe;stop-opacity:1"/><stop offset="1" style="stop-color:#184a8c;stop-opacity:1"/></linearGradient>
    </defs>
</svg>
