<?xml version="1.0" encoding="UTF-8" standalone="no"?>
<!DOCTYPE svg PUBLIC "-//W3C//DTD SVG 1.1//EN" "http://www.w3.org/Graphics/SVG/1.1/DTD/svg11.dtd">
<svg width="100%" height="100%" viewBox="0 0 1029 413" version="1.1" xmlns="http://www.w3.org/2000/svg" xmlns:xlink="http://www.w3.org/1999/xlink" xml:space="preserve" xmlns:serif="http://www.serif.com/" style="fill-rule:evenodd;clip-rule:evenodd;stroke-linejoin:round;stroke-miterlimit:2;">
    <rect id="Artboard1" x="0" y="0" width="1028.91" height="412.666" style="fill:none;"/>
    <clipPath id="_clip1">
        <rect x="0" y="0" width="1028.91" height="412.666"/>
    </clipPath>
    <g clip-path="url(#_clip1)">
        <rect x="-509.543" y="-817.667" width="2048" height="2048" style="fill:#1f212b;"/>
        <g>
            <g id="Layer2">
                <path d="M571.127,204.769l-27.915,58.23l-14.574,-31.728c-4.166,-9.067 -3.817,-18.843 -0.688,-26.51l43.177,0.008Z" style="fill:url(#_Linear2);"/>
                <path d="M528.585,202.692l45.952,-100.996c5.575,-12.253 17.794,-20.118 31.256,-20.118l17.845,-0c0.468,-0 0.924,0.079 1.353,0.229l121.809,1.14c0.112,23.765 -35.999,41.502 -46.102,40.679l-64.837,0.149c-0.06,-0 -0.114,0.04 -0.131,0.098l-0.393,1.316c-0.279,0.937 -0.099,1.951 0.486,2.735c0.584,0.783 1.504,1.246 2.482,1.246l66.547,-0c-9.7,27.584 -28.187,34.408 -44.16,35.322l-52.334,0.712l-0.804,1.063c-0.566,0.749 -0.656,1.755 -0.232,2.593c0.424,0.838 1.288,1.361 2.227,1.348l55.861,-0.765c-7.448,33.387 -28.341,34.305 -39.305,35.329l-45.548,-0.003l-9.43,-0c-12.025,-0.215 -37.875,13.675 -42.039,27.483c-1.929,-4.257 -3.091,-7.537 -3.531,-14.367c-0.232,-3.606 0.498,-8.743 3.028,-15.193Z" style="fill:url(#_Linear3);"/>
                <path d="M492.856,203.469l34.926,76.293c2.257,4.932 2.207,10.612 -0.139,15.502l-17.269,36.012l-62.018,-126.876" style="fill:url(#_Linear4);"/>
                <path d="M448.356,204.4l-45.548,0c-10.964,-1.025 -31.857,-1.943 -39.305,-35.329l55.861,0.765c0.939,0.012 1.803,-0.511 2.227,-1.348c0.424,-0.838 0.334,-1.845 -0.233,-2.594l-0.003,-0.004c-0.505,-0.668 -1.29,-1.066 -2.128,-1.077l-51.006,-0.693c-15.973,-0.915 -34.46,-7.739 -44.16,-35.323l66.547,-0c0.978,-0 1.898,-0.462 2.482,-1.245c0.585,-0.784 0.764,-1.798 0.485,-2.735l-0.129,-0.436c-0.174,-0.581 -0.707,-0.979 -1.314,-0.981l-63.917,-0.146c-10.103,0.823 -46.212,-16.915 -46.101,-40.679l126.264,-1.182c1.512,-0.015 3.013,0.048 4.498,0.185l2.136,-0c13.432,-0 25.632,7.832 31.222,20.046l59.268,129.469c-14.092,-19.938 -31.307,-28.44 -57.146,-26.693Z" style="fill:url(#_Linear5);"/>
            </g>
        </g>
    </g>
    <defs>
        <linearGradient id="_Linear2" x1="0" y1="0" x2="1" y2="0" gradientUnits="userSpaceOnUse" gradientTransform="matrix(-4.94229,-9.68231,9.68231,-4.94229,556.06,227.454)"><stop offset="0" style="stop-color:#8dbe68;stop-opacity:1"/><stop offset="1" style="stop-color:#549820;stop-opacity:1"/></linearGradient>
        <linearGradient id="_Linear3" x1="0" y1="0" x2="1" y2="0" gradientUnits="userSpaceOnUse" gradientTransform="matrix(122.289,-94.0296,94.0296,122.289,552.709,197.642)"><stop offset="0" style="stop-color:#8dbe68;stop-opacity:1"/><stop offset="1" style="stop-color:#549820;stop-opacity:1"/></linearGradient>
        <linearGradient id="_Linear4" x1="0" y1="0" x2="1" y2="0" gradientUnits="userSpaceOnUse" gradientTransform="matrix(5.43901,-61.0392,61.0392,5.43901,483.458,267.372)"><stop offset="0" style="stop-color:#4f7fbe;stop-opacity:1"/><stop offset="1" style="stop-color:#184a8c;stop-opacity:1"/></linearGradient>
        <linearGradient id="_Linear5" x1="0" y1="0" x2="1" y2="0" gradientUnits="userSpaceOnUse" gradientTransform="matrix(-118.227,-139.006,139.006,-118.227,467.324,200.329)"><stop offset="0" style="stop-color:#4f7fbe;stop-opacity:1"/><stop offset="1" style="stop-color:#184a8c;stop-opacity:1"/></linearGradient>
    </defs>
</svg>
